<svg viewBox="0 0 20 22" fill="none" xmlns="http://www.w3.org/2000/svg" id="brand-mark">
<path d="M10.7088 5.1401C10.7089 6.15677 10.395 7.15065 9.80676 7.99604C9.21848 8.84144 8.38225 9.50038 7.40383 9.88952C6.42541 10.2787 5.34874 10.3805 4.31001 10.1822C3.27128 9.98392 2.31714 9.49437 1.56826 8.77548C0.81938 8.05659 0.309406 7.14065 0.102835 6.14351C-0.103736 5.14637 0.00237383 4.11283 0.407746 3.17358C0.813118 2.23434 1.49954 1.43159 2.3802 0.866873C3.26086 0.302151 4.2962 0.000819434 5.35528 0.000989986C6.775 0.00133289 8.13647 0.542883 9.14037 1.50658C10.1443 2.47028 10.7084 3.77723 10.7088 5.1401" fill="black"></path>
<path d="M10.7088 16.8574C10.7098 17.8743 10.3967 18.8686 9.80895 19.7146C9.22121 20.5605 8.38529 21.2201 7.40695 21.6099C6.42861 21.9997 5.3518 22.1022 4.31277 21.9044C3.27375 21.7066 2.31918 21.2174 1.56986 20.4986C0.820528 19.7799 0.310108 18.864 0.103172 17.8667C-0.103764 16.8695 0.00208358 15.8357 0.407323 14.8962C0.812563 13.9567 1.49898 13.1537 2.37974 12.5888C3.2605 12.0239 4.29602 11.7225 5.35528 11.7226C6.77416 11.7232 8.13481 12.2642 9.13853 13.227C10.1422 14.1897 10.707 15.4954 10.7088 16.8574" fill="black"></path>
<path d="M14.6497 -8.68183e-06C13.8009 -0.000858414 12.9644 0.19435 12.2107 0.569135V9.70993C12.9312 10.0635 13.7257 10.2557 14.5346 10.2719C15.3436 10.2882 16.1458 10.1281 16.881 9.80377C17.6162 9.47943 18.2652 8.99927 18.7791 8.3994C19.2931 7.79954 19.6587 7.09559 19.8483 6.34052C20.038 5.58546 20.0468 4.79893 19.8741 4.04013C19.7014 3.28132 19.3517 2.56999 18.8512 1.95966C18.3508 1.34933 17.7127 0.85588 16.985 0.516448C16.2572 0.177015 15.4588 0.000434783 14.6497 -8.68183e-06" fill="black"></path>
<path d="M14.6497 11.7222C13.8013 11.7218 12.9652 11.9159 12.2107 12.2883V21.4317C12.9312 21.7858 13.726 21.9784 14.5352 21.9949C15.3444 22.0115 16.147 21.8517 16.8826 21.5274C17.6181 21.2031 18.2675 20.7229 18.7817 20.1229C19.296 19.5229 19.6618 18.8187 19.8515 18.0633C20.0412 17.308 20.05 16.5211 19.8771 15.7621C19.7043 15.003 19.3543 14.2915 18.8535 13.681C18.3527 13.0706 17.7142 12.5771 16.9861 12.2378C16.2579 11.8986 15.4591 11.7223 14.6497 11.7222" fill="black"></path>
<defs>
<rect width="20" height="22" fill="white"></rect>
</defs>
</svg>

